<svg xmlns="http://www.w3.org/2000/svg" xmlns:xlink="http://www.w3.org/1999/xlink" width="256" zoomAndPan="magnify" viewBox="0 0 192 191.999996" height="256" preserveAspectRatio="xMidYMid meet" version="1.0"><defs><g/><clipPath id="358f7c5705"><path d="M 0 169.921875 L 2 169.921875 L 2 191.671875 L 0 191.671875 Z M 0 169.921875 " clip-rule="nonzero"/></clipPath><clipPath id="8bb578f965"><path d="M 10 182 L 12 182 L 12 191.671875 L 10 191.671875 Z M 10 182 " clip-rule="nonzero"/></clipPath><clipPath id="2dd3cdd94e"><path d="M 19 182 L 21 182 L 21 191.671875 L 19 191.671875 Z M 19 182 " clip-rule="nonzero"/></clipPath><clipPath id="f36bac18f1"><path d="M 29 182 L 31 182 L 31 191.671875 L 29 191.671875 Z M 29 182 " clip-rule="nonzero"/></clipPath><clipPath id="243dd5ddcd"><path d="M 38 182 L 40 182 L 40 191.671875 L 38 191.671875 Z M 38 182 " clip-rule="nonzero"/></clipPath><clipPath id="10f86720ec"><path d="M 47 174 L 50 174 L 50 191.671875 L 47 191.671875 Z M 47 174 " clip-rule="nonzero"/></clipPath><clipPath id="9f7149f5d7"><path d="M 57 182 L 59 182 L 59 191.671875 L 57 191.671875 Z M 57 182 " clip-rule="nonzero"/></clipPath><clipPath id="d98577f2cf"><path d="M 66 182 L 69 182 L 69 191.671875 L 66 191.671875 Z M 66 182 " clip-rule="nonzero"/></clipPath><clipPath id="f321e5fba2"><path d="M 76 182 L 79 182 L 79 191.671875 L 76 191.671875 Z M 76 182 " clip-rule="nonzero"/></clipPath><clipPath id="4be2870a9b"><path d="M 85 182 L 88 182 L 88 191.671875 L 85 191.671875 Z M 85 182 " clip-rule="nonzero"/></clipPath><clipPath id="3272b7b87e"><path d="M 95 170 L 97 170 L 97 191.671875 L 95 191.671875 Z M 95 170 " clip-rule="nonzero"/></clipPath><clipPath id="fb42a618ff"><path d="M 104 182 L 107 182 L 107 191.671875 L 104 191.671875 Z M 104 182 " clip-rule="nonzero"/></clipPath><clipPath id="8a6fae30ad"><path d="M 114 182 L 116 182 L 116 191.671875 L 114 191.671875 Z M 114 182 " clip-rule="nonzero"/></clipPath><clipPath id="ca54b07574"><path d="M 123 182 L 126 182 L 126 191.671875 L 123 191.671875 Z M 123 182 " clip-rule="nonzero"/></clipPath><clipPath id="d00b00891e"><path d="M 133 182 L 135 182 L 135 191.671875 L 133 191.671875 Z M 133 182 " clip-rule="nonzero"/></clipPath><clipPath id="66a771f5d6"><path d="M 142 174 L 145 174 L 145 191.671875 L 142 191.671875 Z M 142 174 " clip-rule="nonzero"/></clipPath><clipPath id="ff0ac43eee"><path d="M 152 182 L 154 182 L 154 191.671875 L 152 191.671875 Z M 152 182 " clip-rule="nonzero"/></clipPath><clipPath id="fa970b1f3a"><path d="M 161 182 L 164 182 L 164 191.671875 L 161 191.671875 Z M 161 182 " clip-rule="nonzero"/></clipPath><clipPath id="a79cad5e94"><path d="M 171 182 L 173 182 L 173 191.671875 L 171 191.671875 Z M 171 182 " clip-rule="nonzero"/></clipPath><clipPath id="0722345fbf"><path d="M 180 182 L 183 182 L 183 191.671875 L 180 191.671875 Z M 180 182 " clip-rule="nonzero"/></clipPath><clipPath id="97bc714272"><path d="M 190 169.921875 L 192 169.921875 L 192 191.671875 L 190 191.671875 Z M 190 169.921875 " clip-rule="nonzero"/></clipPath></defs><g fill="#1b2f4e" fill-opacity="1"><g transform="translate(16.892651, 159.154908)"><g><path d="M 54.78125 -84.953125 C 64.632812 -84.953125 72.429688 -81.796875 78.171875 -75.484375 C 83.921875 -69.171875 86.796875 -60.578125 86.796875 -49.703125 L 86.796875 0 L 73.71875 0 L 73.71875 -46.625 C 73.71875 -55.144531 71.789062 -61.660156 67.9375 -66.171875 C 64.09375 -70.679688 58.582031 -72.9375 51.40625 -72.9375 C 46.6875 -72.9375 42.425781 -71.734375 38.625 -69.328125 C 34.832031 -66.921875 31.832031 -63.613281 29.625 -59.40625 C 27.414062 -55.195312 26.3125 -50.523438 26.3125 -45.390625 L 26.3125 0 L 13.234375 0 L 13.234375 -112.796875 L 26.3125 -112.796875 L 26.3125 -71.859375 C 29.488281 -75.960938 33.515625 -79.171875 38.390625 -81.484375 C 43.265625 -83.796875 48.726562 -84.953125 54.78125 -84.953125 Z M 54.78125 -84.953125 "/></g></g></g><g fill="#1b2f4e" fill-opacity="1"><g transform="translate(115.690451, 159.154908)"><g><path d="M 51.09375 -83.5625 L 58.484375 -83.5625 L 58.484375 -71.09375 L 50.015625 -71.09375 C 42.421875 -71.09375 36.570312 -68.785156 32.46875 -64.171875 C 28.363281 -59.554688 26.3125 -53.195312 26.3125 -45.09375 L 26.3125 0 L 13.234375 0 L 13.234375 -83.09375 L 22.46875 -83.09375 L 24.625 -70.484375 C 27.59375 -74.691406 31.257812 -77.921875 35.625 -80.171875 C 39.988281 -82.429688 45.144531 -83.5625 51.09375 -83.5625 Z M 51.09375 -83.5625 "/></g></g></g><g clip-path="url(#358f7c5705)"><path fill="#000000" d="M 0.449219 169.917969 L 1.988281 169.917969 L 1.988281 191.398438 L 0.449219 191.398438 Z M 0.449219 169.917969 " fill-opacity="0.996" fill-rule="nonzero"/></g><g clip-path="url(#8bb578f965)"><path fill="#000000" d="M 10.085938 182.441406 L 11.625 182.441406 L 11.625 191.054688 L 10.085938 191.054688 Z M 10.085938 182.441406 " fill-opacity="0.996" fill-rule="nonzero"/></g><g clip-path="url(#2dd3cdd94e)"><path fill="#000000" d="M 19.289062 190.644531 L 19.445312 183.332031 L 19.460938 182.574219 L 20.996094 182.605469 L 20.980469 183.363281 L 20.828125 190.675781 L 20.8125 191.433594 L 19.273438 191.402344 Z M 19.289062 190.644531 " fill-opacity="0.996" fill-rule="nonzero"/></g><g clip-path="url(#f36bac18f1)"><path fill="#000000" d="M 29.242188 182.636719 L 30.777344 182.636719 L 30.777344 191.625 L 29.242188 191.625 Z M 29.242188 182.636719 " fill-opacity="0.996" fill-rule="nonzero"/></g><g clip-path="url(#243dd5ddcd)"><path fill="#000000" d="M 38.328125 182.65625 L 39.867188 182.65625 L 39.867188 191.550781 L 38.328125 191.550781 Z M 38.328125 182.65625 " fill-opacity="0.996" fill-rule="nonzero"/></g><g clip-path="url(#10f86720ec)"><path fill="#000000" d="M 47.890625 174.617188 L 49.429688 174.617188 L 49.429688 191.085938 L 47.890625 191.085938 Z M 47.890625 174.617188 " fill-opacity="0.996" fill-rule="nonzero"/></g><g clip-path="url(#9f7149f5d7)"><path fill="#000000" d="M 57.445312 182.621094 L 58.980469 182.621094 L 58.980469 191.351562 L 57.445312 191.351562 Z M 57.445312 182.621094 " fill-opacity="0.996" fill-rule="nonzero"/></g><g clip-path="url(#d98577f2cf)"><path fill="#000000" d="M 66.921875 182.664062 L 68.457031 182.664062 L 68.457031 191.214844 L 66.921875 191.214844 Z M 66.921875 182.664062 " fill-opacity="0.996" fill-rule="nonzero"/></g><g clip-path="url(#f321e5fba2)"><path fill="#000000" d="M 76.664062 182.386719 L 78.203125 182.386719 L 78.203125 191.5625 L 76.664062 191.5625 Z M 76.664062 182.386719 " fill-opacity="0.996" fill-rule="nonzero"/></g><g clip-path="url(#4be2870a9b)"><path fill="#000000" d="M 85.960938 182.703125 L 87.5 182.703125 L 87.5 191.167969 L 85.960938 191.167969 Z M 85.960938 182.703125 " fill-opacity="0.996" fill-rule="nonzero"/></g><g clip-path="url(#3272b7b87e)"><path fill="#000000" d="M 95.222656 170.109375 L 96.761719 170.109375 L 96.761719 191.335938 L 95.222656 191.335938 Z M 95.222656 170.109375 " fill-opacity="0.996" fill-rule="nonzero"/></g><g clip-path="url(#fb42a618ff)"><path fill="#000000" d="M 104.921875 190.605469 L 104.921875 182.476562 L 106.460938 182.476562 L 106.460938 191.363281 L 104.921875 191.363281 Z M 104.921875 190.605469 " fill-opacity="0.996" fill-rule="nonzero"/></g><g clip-path="url(#8a6fae30ad)"><path fill="#000000" d="M 114.15625 190.496094 L 114.15625 182.59375 L 115.695312 182.59375 L 115.695312 191.253906 L 114.15625 191.253906 Z M 114.15625 190.496094 " fill-opacity="0.996" fill-rule="nonzero"/></g><g clip-path="url(#ca54b07574)"><path fill="#000000" d="M 123.949219 182.628906 L 125.488281 182.628906 L 125.488281 191.289062 L 123.949219 191.289062 Z M 123.949219 182.628906 " fill-opacity="0.996" fill-rule="nonzero"/></g><g clip-path="url(#d00b00891e)"><path fill="#000000" d="M 133.378906 182.558594 L 134.917969 182.558594 L 134.917969 191.355469 L 133.378906 191.355469 Z M 133.378906 182.558594 " fill-opacity="0.996" fill-rule="nonzero"/></g><g clip-path="url(#66a771f5d6)"><path fill="#000000" d="M 142.902344 190.609375 L 142.902344 174.570312 L 144.4375 174.570312 L 144.4375 191.367188 L 142.902344 191.367188 Z M 142.902344 190.609375 " fill-opacity="0.996" fill-rule="nonzero"/></g><g clip-path="url(#ff0ac43eee)"><path fill="#000000" d="M 152.238281 182.414062 L 153.777344 182.414062 L 153.777344 191.664062 L 152.238281 191.664062 Z M 152.238281 182.414062 " fill-opacity="0.996" fill-rule="nonzero"/></g><g clip-path="url(#fa970b1f3a)"><path fill="#000000" d="M 161.867188 182.746094 L 163.402344 182.746094 L 163.402344 191.070312 L 161.867188 191.070312 Z M 161.867188 182.746094 " fill-opacity="0.996" fill-rule="nonzero"/></g><g clip-path="url(#a79cad5e94)"><path fill="#000000" d="M 171.292969 182.496094 L 172.828125 182.496094 L 172.828125 191.328125 L 171.292969 191.328125 Z M 171.292969 182.496094 " fill-opacity="0.996" fill-rule="nonzero"/></g><g clip-path="url(#0722345fbf)"><path fill="#000000" d="M 180.742188 182.554688 L 182.28125 182.554688 L 182.28125 191.003906 L 180.742188 191.003906 Z M 180.742188 182.554688 " fill-opacity="0.996" fill-rule="nonzero"/></g><g clip-path="url(#97bc714272)"><path fill="#000000" d="M 190.027344 169.988281 L 191.566406 169.988281 L 191.566406 191.148438 L 190.027344 191.148438 Z M 190.027344 169.988281 " fill-opacity="0.996" fill-rule="nonzero"/></g></svg>