<svg xmlns="http://www.w3.org/2000/svg" xmlns:xlink="http://www.w3.org/1999/xlink" width="256" zoomAndPan="magnify" viewBox="0 0 192 191.999996" height="256" preserveAspectRatio="xMidYMid meet" version="1.0"><defs><g/><clipPath id="6adb44678b"><rect x="0" width="81" y="0" height="70"/></clipPath><clipPath id="4309c53ccd"><path d="M 63.304688 99.316406 L 65 99.316406 L 65 107.566406 L 63.304688 107.566406 Z M 63.304688 99.316406 " clip-rule="nonzero"/></clipPath><clipPath id="820cbed6e8"><path d="M 67 104 L 68 104 L 68 107.566406 L 67 107.566406 Z M 67 104 " clip-rule="nonzero"/></clipPath><clipPath id="3202d5e67c"><path d="M 70 104 L 72 104 L 72 107.566406 L 70 107.566406 Z M 70 104 " clip-rule="nonzero"/></clipPath><clipPath id="8a2887c42c"><path d="M 74 104 L 76 104 L 76 107.566406 L 74 107.566406 Z M 74 104 " clip-rule="nonzero"/></clipPath><clipPath id="2b225b237f"><path d="M 77 104 L 79 104 L 79 107.566406 L 77 107.566406 Z M 77 104 " clip-rule="nonzero"/></clipPath><clipPath id="f23b8bc55a"><path d="M 81 101 L 83 101 L 83 107.566406 L 81 107.566406 Z M 81 101 " clip-rule="nonzero"/></clipPath><clipPath id="ad456c9257"><path d="M 85 104 L 86 104 L 86 107.566406 L 85 107.566406 Z M 85 104 " clip-rule="nonzero"/></clipPath><clipPath id="a003b63ba7"><path d="M 88 104 L 90 104 L 90 107.566406 L 88 107.566406 Z M 88 104 " clip-rule="nonzero"/></clipPath><clipPath id="c940544114"><path d="M 92 104 L 94 104 L 94 107.566406 L 92 107.566406 Z M 92 104 " clip-rule="nonzero"/></clipPath><clipPath id="3dfa752c8b"><path d="M 96 104 L 97 104 L 97 107.566406 L 96 107.566406 Z M 96 104 " clip-rule="nonzero"/></clipPath><clipPath id="90b9a2197c"><path d="M 99 99.316406 L 101 99.316406 L 101 107.566406 L 99 107.566406 Z M 99 99.316406 " clip-rule="nonzero"/></clipPath><clipPath id="81ec895d7f"><path d="M 103 104 L 105 104 L 105 107.566406 L 103 107.566406 Z M 103 104 " clip-rule="nonzero"/></clipPath><clipPath id="ecae9df046"><path d="M 107 104 L 108 104 L 108 107.566406 L 107 107.566406 Z M 107 104 " clip-rule="nonzero"/></clipPath><clipPath id="63fb21ed71"><path d="M 110 104 L 112 104 L 112 107.566406 L 110 107.566406 Z M 110 104 " clip-rule="nonzero"/></clipPath><clipPath id="f7844b950e"><path d="M 114 104 L 115 104 L 115 107.566406 L 114 107.566406 Z M 114 104 " clip-rule="nonzero"/></clipPath><clipPath id="01375fc7eb"><path d="M 118 101 L 119 101 L 119 107.566406 L 118 107.566406 Z M 118 101 " clip-rule="nonzero"/></clipPath><clipPath id="8e24dc1fc1"><path d="M 121 104 L 123 104 L 123 107.566406 L 121 107.566406 Z M 121 104 " clip-rule="nonzero"/></clipPath><clipPath id="edadcca785"><path d="M 125 104 L 126 104 L 126 107.566406 L 125 107.566406 Z M 125 104 " clip-rule="nonzero"/></clipPath><clipPath id="b643869428"><path d="M 128 104 L 130 104 L 130 107.566406 L 128 107.566406 Z M 128 104 " clip-rule="nonzero"/></clipPath><clipPath id="98e4e735c9"><path d="M 132 104 L 134 104 L 134 107.566406 L 132 107.566406 Z M 132 104 " clip-rule="nonzero"/></clipPath><clipPath id="fcfee3e669"><path d="M 136 99.316406 L 136.804688 99.316406 L 136.804688 107.566406 L 136 107.566406 Z M 136 99.316406 " clip-rule="nonzero"/></clipPath></defs><g transform="matrix(1, 0, 0, 1, 56, 40)"><g clip-path="url(#6adb44678b)"><g fill="#1b2f4e" fill-opacity="1"><g transform="translate(1.24731, 56.577426)"><g><path d="M 26.84375 -41.609375 C 31.664062 -41.609375 35.484375 -40.0625 38.296875 -36.96875 C 41.109375 -33.882812 42.515625 -29.675781 42.515625 -24.34375 L 42.515625 0 L 36.109375 0 L 36.109375 -22.84375 C 36.109375 -27.007812 35.164062 -30.195312 33.28125 -32.40625 C 31.394531 -34.625 28.695312 -35.734375 25.1875 -35.734375 C 22.875 -35.734375 20.785156 -35.140625 18.921875 -33.953125 C 17.066406 -32.773438 15.597656 -31.15625 14.515625 -29.09375 C 13.429688 -27.039062 12.890625 -24.753906 12.890625 -22.234375 L 12.890625 0 L 6.484375 0 L 6.484375 -55.265625 L 12.890625 -55.265625 L 12.890625 -35.203125 C 14.453125 -37.210938 16.425781 -38.78125 18.8125 -39.90625 C 21.195312 -41.039062 23.875 -41.609375 26.84375 -41.609375 Z M 26.84375 -41.609375 "/></g></g></g><g fill="#1b2f4e" fill-opacity="1"><g transform="translate(49.639782, 56.577426)"><g><path d="M 25.03125 -40.9375 L 28.640625 -40.9375 L 28.640625 -34.828125 L 24.5 -34.828125 C 20.78125 -34.828125 17.914062 -33.695312 15.90625 -31.4375 C 13.894531 -29.175781 12.890625 -26.0625 12.890625 -22.09375 L 12.890625 0 L 6.484375 0 L 6.484375 -40.703125 L 11 -40.703125 L 12.0625 -34.53125 C 13.519531 -36.59375 15.316406 -38.175781 17.453125 -39.28125 C 19.585938 -40.382812 22.113281 -40.9375 25.03125 -40.9375 Z M 25.03125 -40.9375 "/></g></g></g></g></g><g clip-path="url(#4309c53ccd)"><path fill="#000000" d="M 63.472656 99.316406 L 64.0625 99.316406 L 64.0625 107.460938 L 63.472656 107.460938 Z M 63.472656 99.316406 " fill-opacity="0.996" fill-rule="nonzero"/></g><g clip-path="url(#820cbed6e8)"><path fill="#000000" d="M 67.164062 104.066406 L 67.753906 104.066406 L 67.753906 107.332031 L 67.164062 107.332031 Z M 67.164062 104.066406 " fill-opacity="0.996" fill-rule="nonzero"/></g><g clip-path="url(#3202d5e67c)"><path fill="#000000" d="M 70.6875 107.175781 L 70.746094 104.402344 L 70.75 104.113281 L 71.339844 104.128906 L 71.335938 104.414062 L 71.273438 107.1875 L 71.269531 107.476562 L 70.679688 107.464844 Z M 70.6875 107.175781 " fill-opacity="0.996" fill-rule="nonzero"/></g><g clip-path="url(#8a2887c42c)"><path fill="#000000" d="M 74.496094 104.136719 L 75.085938 104.136719 L 75.085938 107.546875 L 74.496094 107.546875 Z M 74.496094 104.136719 " fill-opacity="0.996" fill-rule="nonzero"/></g><g clip-path="url(#2b225b237f)"><path fill="#000000" d="M 77.976562 104.144531 L 78.5625 104.144531 L 78.5625 107.519531 L 77.976562 107.519531 Z M 77.976562 104.144531 " fill-opacity="0.996" fill-rule="nonzero"/></g><g clip-path="url(#f23b8bc55a)"><path fill="#000000" d="M 81.636719 101.097656 L 82.222656 101.097656 L 82.222656 107.34375 L 81.636719 107.34375 Z M 81.636719 101.097656 " fill-opacity="0.996" fill-rule="nonzero"/></g><g clip-path="url(#ad456c9257)"><path fill="#000000" d="M 85.292969 104.132812 L 85.882812 104.132812 L 85.882812 107.445312 L 85.292969 107.445312 Z M 85.292969 104.132812 " fill-opacity="0.996" fill-rule="nonzero"/></g><g clip-path="url(#a003b63ba7)"><path fill="#000000" d="M 88.921875 104.148438 L 89.507812 104.148438 L 89.507812 107.394531 L 88.921875 107.394531 Z M 88.921875 104.148438 " fill-opacity="0.996" fill-rule="nonzero"/></g><g clip-path="url(#c940544114)"><path fill="#000000" d="M 92.648438 104.042969 L 93.238281 104.042969 L 93.238281 107.523438 L 92.648438 107.523438 Z M 92.648438 104.042969 " fill-opacity="0.996" fill-rule="nonzero"/></g><g clip-path="url(#3dfa752c8b)"><path fill="#000000" d="M 96.210938 104.164062 L 96.796875 104.164062 L 96.796875 107.375 L 96.210938 107.375 Z M 96.210938 104.164062 " fill-opacity="0.996" fill-rule="nonzero"/></g><g clip-path="url(#90b9a2197c)"><path fill="#000000" d="M 99.753906 99.386719 L 100.34375 99.386719 L 100.34375 107.4375 L 99.753906 107.4375 Z M 99.753906 99.386719 " fill-opacity="0.996" fill-rule="nonzero"/></g><g clip-path="url(#81ec895d7f)"><path fill="#000000" d="M 103.46875 107.160156 L 103.46875 104.078125 L 104.058594 104.078125 L 104.058594 107.449219 L 103.46875 107.449219 Z M 103.46875 107.160156 " fill-opacity="0.996" fill-rule="nonzero"/></g><g clip-path="url(#ecae9df046)"><path fill="#000000" d="M 107.003906 107.121094 L 107.003906 104.121094 L 107.59375 104.121094 L 107.59375 107.40625 L 107.003906 107.40625 Z M 107.003906 107.121094 " fill-opacity="0.996" fill-rule="nonzero"/></g><g clip-path="url(#63fb21ed71)"><path fill="#000000" d="M 110.753906 104.136719 L 111.339844 104.136719 L 111.339844 107.421875 L 110.753906 107.421875 Z M 110.753906 104.136719 " fill-opacity="0.996" fill-rule="nonzero"/></g><g clip-path="url(#f7844b950e)"><path fill="#000000" d="M 114.363281 104.109375 L 114.949219 104.109375 L 114.949219 107.445312 L 114.363281 107.445312 Z M 114.363281 104.109375 " fill-opacity="0.996" fill-rule="nonzero"/></g><g clip-path="url(#01375fc7eb)"><path fill="#000000" d="M 118.007812 107.164062 L 118.007812 101.078125 L 118.597656 101.078125 L 118.597656 107.449219 L 118.007812 107.449219 Z M 118.007812 107.164062 " fill-opacity="0.996" fill-rule="nonzero"/></g><g clip-path="url(#8e24dc1fc1)"><path fill="#000000" d="M 121.582031 104.054688 L 122.171875 104.054688 L 122.171875 107.5625 L 121.582031 107.5625 Z M 121.582031 104.054688 " fill-opacity="0.996" fill-rule="nonzero"/></g><g clip-path="url(#edadcca785)"><path fill="#000000" d="M 125.269531 104.179688 L 125.855469 104.179688 L 125.855469 107.335938 L 125.269531 107.335938 Z M 125.269531 104.179688 " fill-opacity="0.996" fill-rule="nonzero"/></g><g clip-path="url(#b643869428)"><path fill="#000000" d="M 128.875 104.085938 L 129.464844 104.085938 L 129.464844 107.4375 L 128.875 107.4375 Z M 128.875 104.085938 " fill-opacity="0.996" fill-rule="nonzero"/></g><g clip-path="url(#98e4e735c9)"><path fill="#000000" d="M 132.496094 104.105469 L 133.082031 104.105469 L 133.082031 107.3125 L 132.496094 107.3125 Z M 132.496094 104.105469 " fill-opacity="0.996" fill-rule="nonzero"/></g><g clip-path="url(#fcfee3e669)"><path fill="#000000" d="M 136.050781 99.34375 L 136.636719 99.34375 L 136.636719 107.367188 L 136.050781 107.367188 Z M 136.050781 99.34375 " fill-opacity="0.996" fill-rule="nonzero"/></g></svg>